PathFileType	4	(x/y/z)	S01_PSF_T06.trc
DataRate	CameraRate	NumFrames	NumMarkers	Units	OrigDataRate	OrigDataStartFrame	OrigNumFrames
240	240	6	51	mm	240	59	471
Frame#	Time	Sternum			R.Acromium			L.Acromium			Top.Head			R.ASIS			L.ASIS			R.PSIS			L.PSIS			R.Great.Tro			L.Great.Tro			R.Iliac.Crest			L.Iliac.Crest			V.Sacral			R.Thigh.Upper.Post			R.Thigh.Lower.Ant			R.Thigh.Lower.Post			R.Thigh.Upper.Ant			R.Knee.Lat			R.Knee.Med			R.Shank.Upper.Post			R.Shank.Lower.Ant			R.Shank.Lower.Post			R.Shank.Upper.Ant			R.Ankle.Lat			R.Ankle.Med			R.Heel.Upper			R.Heel.Med			R.Heel.Lat			R.Toe.Lat			R.Toe.Med			R.Toe.Tip			L.Thigh.Upper.Post			L.Thigh.Lower.Ant			L.Thigh.Lower.Post			L.Thigh.Upper.Ant			L.Knee.Lat			L.Knee.Med			L.Shank.Upper.Post			L.Shank.Lower.Ant			L.Shank.Lower.Post			L.Shank.Upper.Ant			L.Ankle.Lat			L.Ankle.Med			L.Heel.Upper			L.Heel.Med			L.Heel.Lat			L.Toe.Lat			L.Toe.Med			L.Toe.Tip			Cervical.Spine			Back			
		X1	Y1	Z1	X2	Y2	Z2	X3	Y3	Z3	X4	Y4	Z4	X5	Y5	Z5	X6	Y6	Z6	X7	Y7	Z7	X8	Y8	Z8	X9	Y9	Z9	X10	Y10	Z10	X11	Y11	Z11	X12	Y12	Z12	X13	Y13	Z13	X14	Y14	Z14	X15	Y15	Z15	X16	Y16	Z16	X17	Y17	Z17	X18	Y18	Z18	X19	Y19	Z19	X20	Y20	Z20	X21	Y21	Z21	X22	Y22	Z22	X23	Y23	Z23	X24	Y24	Z24	X25	Y25	Z25	X26	Y26	Z26	X27	Y27	Z27	X28	Y28	Z28	X29	Y29	Z29	X30	Y30	Z30	X31	Y31	Z31	X32	Y32	Z32	X33	Y33	Z33	X34	Y34	Z34	X35	Y35	Z35	X36	Y36	Z36	X37	Y37	Z37	X38	Y38	Z38	X39	Y39	Z39	X40	Y40	Z40	X41	Y41	Z41	X42	Y42	Z42	X43	Y43	Z43	X44	Y44	Z44	X45	Y45	Z45	X46	Y46	Z46	X47	Y47	Z47	X48	Y48	Z48	X49	Y49	Z49	X50	Y50	Z50	X51	Y51	Z51	

59	0.24167	-1002.3	1291.7	218.89	-1115	1553.8	380.73	-1117.7	1554.6	50.499	-1045.9	1861	196.18	-1060.4	1050.4	377.55	-1046.1	1042.1	113.4	-1292.7	1082.9	283.31	-1298	1085.9	179.9	-1132.5	999.97	464.7	-1155.5	992.6	36.928	-1145.1	1151.1	438.77	-1156.4	1120.1	34.404	-1308.9	1048.8	228.74	-1021.3	707.42	458.32	-926.8	669.78	439.34	-982.34	628.23	439.96	-964.08	751.93	455.21	-948.64	574.92	439.56	-922.36	581.86	293.45	-1034.3	432.13	441.48	-986.82	339.33	404.78	-1051.8	364.55	425.04	-973.37	408.69	426.67	-1090.3	168.06	381.24	-1045.3	172.06	295.58	-1154.2	154.07	310.41	-1138.4	124.25	281.73	-1155.3	120.54	344.26	-986.61	66.832	429.12	-933.81	71.689	314.04	-878.43	78.817	378.42	-1211.5	714.25	67.432	-1132.1	637.15	69.143	-1209	625.02	86.222	-1144.1	729.61	47.482	-1168.8	534.5	80.445	-1144.2	538.02	222.92	-1236	396.85	68.462	-1179.4	304.42	95.513	-1240.8	318.52	74.949	-1174	380.64	84.257	-1266.2	105.82	119.67	-1240.1	119.81	217.25	-1337.4	76.164	167.77	-1327.2	52.597	201.34	-1330.2	50.502	139.45	-1117.5	38.74	108	-1093.8	51.414	229.26	-1030	58.616	178.87	-1193.3	1614.4	213.72	-1303.6	1309.7	236.92
60	0.24583	-996.96	1290.8	218.99	-1109.5	1553	380.88	-1112.2	1553.9	50.65	-1040.3	1860.3	196.59	-1055.1	1049.5	377.64	-1041.1	1041.3	113.34	-1287.5	1082.3	283.54	-1292.9	1085.5	180.14	-1127.4	999.18	464.84	-1150.7	992.19	36.958	-1139.5	1150.3	438.82	-1151.5	1119.3	34.415	-1303.8	1048.3	228.93	-1015.3	706.83	457.62	-920.74	669.56	438.23	-976.11	627.8	438.94	-958.24	751.54	454.39	-941.96	574.82	438.42	-916.18	581.86	292.36	-1024.4	430.15	441.06	-974.81	338.4	404.58	-1040.3	362.14	424.9	-963.06	408.11	426.11	-1073.9	164.42	381.78	-1029.4	169.42	296.03	-1137.4	148.38	311.04	-1120.8	118.79	282.57	-1137.6	114.98	345.09	-967.46	66.321	429.94	-914.89	72.017	314.89	-859.57	80.912	379.18	-1208.7	714.43	67.465	-1129.9	636.8	69.269	-1206.8	625.19	86.206	-1141.1	729.27	47.572	-1167.4	534.34	80.387	-1142.8	537.72	222.94	-1235.1	396.86	68.466	-1178.8	304.26	95.544	-1240.2	318.55	75.006	-1173.2	380.46	84.245	-1266.1	105.91	119.92	-1240	119.7	217.48	-1337.4	76.184	167.98	-1327.2	52.552	201.49	-1330.2	50.606	139.58	-1117.5	38.753	108.02	-1093.8	51.165	229.31	-1029.9	58.457	178.93	-1187.7	1613.7	213.91	-1298.3	1309.1	237.1
61	0.25	-991.64	1289.8	219.1	-1104.1	1552.2	381.03	-1106.7	1553.2	50.813	-1034.8	1859.6	197	-1049.9	1048.6	377.74	-1036.1	1040.5	113.31	-1282.3	1081.6	283.76	-1287.8	1085	180.37	-1122.3	998.31	464.97	-1145.9	991.75	36.99	-1134	1149.4	438.89	-1146.6	1118.5	34.444	-1298.7	1047.8	229.1	-1009.5	706.12	456.89	-914.79	669.19	437.1	-970.01	627.24	437.9	-952.5	751.02	453.55	-935.38	574.61	437.25	-910.12	581.74	291.23	-1014.6	428.14	440.64	-962.83	337.5	404.37	-1028.9	359.75	424.78	-952.81	407.54	425.55	-1057.4	160.9	382.36	-1013.5	166.89	296.49	-1120.6	142.81	311.72	-1103.1	113.48	283.45	-1119.8	109.6	345.96	-948.33	66.018	430.77	-896.04	72.537	315.75	-840.84	83.201	379.92	-1205.8	714.6	67.496	-1127.5	636.45	69.398	-1204.6	625.35	86.188	-1138	728.92	47.659	-1166	534.18	80.32	-1141.5	537.42	222.94	-1234.2	396.89	68.467	-1178.3	304.11	95.566	-1239.7	318.59	75.062	-1172.4	380.28	84.224	-1266.1	106	120.16	-1239.9	119.6	217.71	-1337.4	76.209	168.18	-1327.2	52.509	201.63	-1330.2	50.714	139.71	-1117.5	38.762	108.04	-1093.8	50.914	229.36	-1029.9	58.29	178.99	-1182.2	1613	214.12	-1293	1308.4	237.3
62	0.25417	-986.33	1288.8	219.22	-1098.6	1551.3	381.19	-1101.2	1552.4	50.988	-1029.2	1858.8	197.42	-1044.6	1047.5	377.85	-1031	1039.6	113.3	-1277.1	1080.8	283.97	-1282.7	1084.5	180.59	-1117.3	997.35	465.08	-1141.1	991.3	37.021	-1128.5	1148.5	438.97	-1141.6	1117.7	34.489	-1293.7	1047.2	229.26	-1003.7	705.29	456.12	-908.97	668.69	435.97	-964.03	626.55	436.83	-946.85	750.36	452.71	-928.9	574.31	436.06	-904.18	581.5	290.07	-1004.8	426.11	440.22	-950.9	336.64	404.15	-1017.4	357.38	424.68	-942.61	406.95	424.97	-1040.9	157.53	382.96	-997.61	164.47	296.97	-1103.6	137.39	312.45	-1085.3	108.34	284.37	-1101.9	104.4	346.88	-929.23	65.928	431.6	-877.26	73.256	316.59	-822.26	85.69	380.62	-1202.9	714.76	67.526	-1125.2	636.09	69.528	-1202.4	625.51	86.168	-1134.9	728.57	47.741	-1164.6	534.03	80.243	-1140.1	537.12	222.91	-1233.4	396.93	68.464	-1177.7	303.96	95.574	-1239.1	318.63	75.116	-1171.6	380.11	84.189	-1266	106.09	120.41	-1239.8	119.5	217.94	-1337.3	76.237	168.39	-1327.2	52.471	201.78	-1330.2	50.827	139.85	-1117.5	38.767	108.06	-1093.8	50.663	229.42	-1029.8	58.116	179.05	-1176.7	1612.2	214.34	-1287.7	1307.7	237.52
63	0.25833	-981.01	1287.7	219.36	-1093.1	1550.3	381.36	-1095.7	1551.5	51.177	-1023.7	1858	197.86	-1039.3	1046.5	377.97	-1025.9	1038.7	113.31	-1271.9	1080	284.18	-1277.5	1083.9	180.8	-1112.3	996.32	465.18	-1136.2	990.83	37.051	-1123.1	1147.4	439.06	-1136.6	1116.8	34.552	-1288.6	1046.5	229.41	-998.02	704.34	455.33	-903.26	668.05	434.84	-958.19	625.74	435.74	-941.3	749.58	451.85	-922.52	573.9	434.86	-898.35	581.13	288.87	-994.99	424.06	439.82	-939.02	335.81	403.92	-1005.9	355.03	424.61	-932.46	406.37	424.39	-1024.3	154.32	383.59	-981.64	162.17	297.46	-1086.6	132.13	313.22	-1067.5	103.39	285.32	-1083.9	99.392	347.85	-910.17	66.055	432.4	-858.58	74.174	317.4	-803.83	88.379	381.28	-1200	714.91	67.552	-1122.9	635.72	69.657	-1200.1	625.66	86.143	-1131.8	728.22	47.819	-1163.1	533.88	80.153	-1138.6	536.81	222.87	-1232.5	396.98	68.458	-1177.1	303.82	95.567	-1238.5	318.68	75.165	-1170.7	379.94	84.14	-1265.9	106.18	120.65	-1239.7	119.4	218.16	-1337.3	76.271	168.6	-1327.2	52.437	201.93	-1330.1	50.943	139.98	-1117.5	38.767	108.08	-1093.8	50.415	229.47	-1029.8	57.935	179.1	-1171.1	1611.4	214.58	-1282.4	1307	237.77
64	0.2625	-975.69	1286.6	219.52	-1087.6	1549.3	381.55	-1090.2	1550.6	51.38	-1018.2	1857.1	198.31	-1034.1	1045.3	378.1	-1020.8	1037.8	113.35	-1266.6	1079.2	284.36	-1272.4	1083.3	181	-1107.3	995.21	465.27	-1131.3	990.34	37.079	-1117.7	1146.3	439.18	-1131.5	1115.9	34.629	-1283.5	1045.9	229.54	-992.46	703.28	454.52	-897.66	667.27	433.72	-952.47	624.81	434.64	-935.84	748.66	450.99	-916.23	573.4	433.64	-892.65	580.64	287.64	-985.22	422	439.42	-927.19	335.04	403.68	-994.44	352.72	424.56	-922.37	405.79	423.8	-1007.8	151.26	384.22	-965.61	159.98	297.96	-1069.5	127.04	314.03	-1049.7	98.633	286.3	-1065.9	94.591	348.84	-891.17	66.401	433.17	-840.02	75.296	318.19	-785.57	91.27	381.88	-1197	715.06	67.575	-1120.5	635.35	69.783	-1197.9	625.81	86.113	-1128.8	727.86	47.891	-1161.6	533.75	80.048	-1137.2	536.49	222.81	-1231.6	397.05	68.448	-1176.5	303.68	95.544	-1238	318.74	75.209	-1169.9	379.77	84.074	-1265.9	106.26	120.89	-1239.6	119.32	218.38	-1337.2	76.311	168.8	-1327.2	52.409	202.07	-1330.1	51.066	140.12	-1117.5	38.764	108.09	-1093.8	50.173	229.52	-1029.8	57.748	179.16	-1165.5	1610.6	214.84	-1277	1306.2	238.04
